<svg id="Layer_1" data-name="Layer 1" xmlns="http://www.w3.org/2000/svg" viewBox="0 0 557.83 138.62"><defs><style>.cls-1{fill:#fff;}</style></defs><path class="cls-1" d="M46.79,67.74v4.42l-8.73,4.07q.93,0,3.37,18.39a118.75,118.75,0,0,1,1.17,15.6c0,1.86-.08,3.68-.24,5.47a59.71,59.71,0,0,1-1.16,8.84,21.9,21.9,0,0,1-3.37,7.1A17.21,17.21,0,0,1,32.3,137a13.4,13.4,0,0,1-6.58,1.58H23.16a26.09,26.09,0,0,1-12-4A26.85,26.85,0,0,1,3,124.87,23.11,23.11,0,0,1,0,113.8q0-8.62,9.43-22.14a74.39,74.39,0,0,1,19.2-19q0-.22-.81-9.2A60.52,60.52,0,0,0,25,50.76q-2.09-6.28-4.19-12.47L23.39,37,29,47.72Q31,51.56,32.47,62a34.09,34.09,0,0,0,2.33,8.73ZM35.5,122.21a51.51,51.51,0,0,0,2.79-15.72q0-8-4.07-19.43a25.42,25.42,0,0,0-1.75-4c-.23-.47-.7-1.24-1.4-2.33A54.61,54.61,0,0,0,19.9,89.5a51.42,51.42,0,0,0-8.84,11.06,26.9,26.9,0,0,0-3.49,13.5,19,19,0,0,0,4.88,12.68q5.6,6.64,12,6.64,6.16,0,8.85-4.54Q33.39,128.6,35.5,122.21ZM24.09,14.32a3.75,3.75,0,0,1-1.51,3.14,5.6,5.6,0,0,1-3.49,1.16l-2-4.3,2.56-5a4,4,0,0,1,3.2,1.46A5.35,5.35,0,0,1,24.09,14.32Z"/><path class="cls-1" d="M96.13,69.13l-2.32,2.21c-.78.78-2.29,1.25-4.54,1.4q-5.47.47-5.71.47-3.84,0-5.47-1a11.28,11.28,0,0,1-4.42-5.47l-8,4.89a10.15,10.15,0,0,1-7.45,3,11.6,11.6,0,0,1-6.75-2.27,10.07,10.07,0,0,1-4.19-5.64A10.19,10.19,0,0,1,46.79,64a6.82,6.82,0,0,1,.11-1.63l1.4-4.19q1.05-2.32,6.17-6.28,3.38-2.69,6.75-4.89,6.39-4.19,10.71-4.19a13.07,13.07,0,0,1,4.65,1.05,13.38,13.38,0,0,1,4.19,2.44,5.11,5.11,0,0,1,2,4.31,6.35,6.35,0,0,1-1.63,4.07l-2.44,7.92a8.27,8.27,0,0,0,3.95,4.53,11.15,11.15,0,0,0,5,.82,22.28,22.28,0,0,0,4.42-.35ZM68.67,61.68V57.15a13.23,13.23,0,0,0-10,4.3,10.5,10.5,0,0,0-2,3.14l4,2.56Z"/><path class="cls-1" d="M141.29,70.3a8.11,8.11,0,0,1-1.4,1.63,10,10,0,0,1-6.16,1.74q-12.1,0-17.23-8.14a15.6,15.6,0,0,0-3.14-.35,9.32,9.32,0,0,0-5.82,2.32c-.39.31-1.94,1.87-4.66,4.66a3.94,3.94,0,0,1-3.14.93c-3.34-.47-5-2.6-5-6.4l-7.22,5.47-5.47-1.75A14.15,14.15,0,0,1,84.84,67c.94-.62,2.41-1.71,4.43-3.26q.93-.81,3.31-3a15.43,15.43,0,0,1,5.65-3.2l6.28,4.07L110.45,58h2.79q5.36,0,12.92,4.07a78.57,78.57,0,0,0,8.61,5,9.86,9.86,0,0,0,3.38.7,5.7,5.7,0,0,0,2.33-.47.48.48,0,0,0,.35-.12c-.24-.23-.39-.3-.47-.23a1.13,1.13,0,0,0-.23.82A2.73,2.73,0,0,0,141.29,70.3Z"/><path class="cls-1" d="M188.66,65.76,180.75,72a16,16,0,0,1-9.9,3.84A17.69,17.69,0,0,1,164,74.37a41.42,41.42,0,0,1-6.06-2.79q-5.35-3.49-5.35-9.08a25.44,25.44,0,0,1,1.16-7.33c-.77,1.47-1.55,2.83-2.32,4.07a26.56,26.56,0,0,1-10.25,9.89c-3.8,2-5.93,3.19-6.4,3.49l-5.7-3.49a16.86,16.86,0,0,0,5.24-3.26c1.55-1.47,3.1-2.91,4.65-4.3q2-1.76,6.87-6.17A59,59,0,0,0,151.18,48l5-8,5.82-.81a1.11,1.11,0,0,1,.11.46V40a7.5,7.5,0,0,1-.58,2.67,16,16,0,0,0-1.16,4.19,11.38,11.38,0,0,0,.17,1.52,10.16,10.16,0,0,1,.18,1.51,14.78,14.78,0,0,1-.88,4.13,15,15,0,0,0-.87,4q0,3.38,4.89,7.79a12.36,12.36,0,0,0,8.61,3.26,16.28,16.28,0,0,0,4-.46A39,39,0,0,1,182,67.5,12.52,12.52,0,0,0,187,66ZM165.5,20.83a4.24,4.24,0,0,1-2,2.74A6.21,6.21,0,0,1,160,24.79c-1.09,0-1.71-.47-1.86-1.4a4.5,4.5,0,0,1,1.57-4,5.68,5.68,0,0,1,4-1.92c1.24,0,1.87.77,1.87,2.33A4.72,4.72,0,0,1,165.5,20.83Z"/><path class="cls-1" d="M230.21,66.46a63.77,63.77,0,0,1-8.15,5.7q-.12,0-5.47,1-2.91.69-10.47,2-2.56.34-6.52,1l-3.73-1.74.59-4.54,10.59-4.42a4.13,4.13,0,0,0,2.79-4.08A3.62,3.62,0,0,0,208.56,58l-1.86-4.54L202.28,52,190.06,64.24l-14.2,10.83.58-8.38q1.51-.81,9-6a34,34,0,0,0,6-5.36l5.36-6.05q1.62-2,6.05-7.22V36.78l5.47-2.21A54.3,54.3,0,0,0,209,41l.46,3.26a21.86,21.86,0,0,0,2.1,6.75c.93,1.7,1.9,3.45,2.91,5.23a17.56,17.56,0,0,1,1.16,4.89l.58,5.59,6.17-.47Z"/><path class="cls-1" d="M300.27,67.74v4.42l-8.73,4.07q.93,0,3.38,18.39a120.34,120.34,0,0,1,1.16,15.6c0,1.86-.08,3.68-.23,5.47a62.69,62.69,0,0,1-1.16,8.84,22.14,22.14,0,0,1-3.38,7.1,17.21,17.21,0,0,1-5.53,5.41,13.36,13.36,0,0,1-6.57,1.58h-2.56a26.05,26.05,0,0,1-12-4,27,27,0,0,1-8.15-9.73,23.11,23.11,0,0,1-3-11.07q0-8.62,9.43-22.14a74.58,74.58,0,0,1,19.21-19c0-.15-.28-3.22-.82-9.2a60.43,60.43,0,0,0-2.79-12.7q-2.1-6.28-4.19-12.47L276.88,37l5.59,10.71q2,3.84,3.49,14.31a34.54,34.54,0,0,0,2.32,8.73ZM289,122.21a51.24,51.24,0,0,0,2.8-15.72q0-8-4.08-19.43a25.54,25.54,0,0,0-1.74-4c-.24-.47-.7-1.24-1.4-2.33a54.61,54.61,0,0,0-11.17,8.73,51.51,51.51,0,0,0-8.85,11.06,26.9,26.9,0,0,0-3.49,13.5,19,19,0,0,0,4.89,12.68q5.58,6.64,12,6.64,6.17,0,8.84-4.54Q286.89,128.6,289,122.21ZM277.58,14.32a3.76,3.76,0,0,1-1.52,3.14,5.6,5.6,0,0,1-3.49,1.16l-2-4.3,2.56-5a4,4,0,0,1,3.21,1.46A5.35,5.35,0,0,1,277.58,14.32Z"/><path class="cls-1" d="M374.88,53.54a19.62,19.62,0,0,1-5.12,4.65,6,6,0,0,1-2.57,1.05l-2.79.47a1.39,1.39,0,0,0-1-.35,4.74,4.74,0,0,0-1.45.35,3.12,3.12,0,0,1-1.57.23,11.34,11.34,0,0,0-5.59,0q-.58,2-2,5.93-3.84,8.26-11.4,11.18a21.83,21.83,0,0,1-7.45,1.63,13.21,13.21,0,0,1-9.08-3.84q-5.35-5-5.35-11.18a24.44,24.44,0,0,1,.46-4.19c-.39.31-2.09,1.32-5.12,3A12.19,12.19,0,0,0,312,64.71a23,23,0,0,1-12.46,7.8L293.75,71l5.94-4.19q1.86-1.29,4.54-2.8c1.55-.77,3.14-1.63,4.77-2.56q8.38-5.94,18.39-12.8,7.33-5,12.8-5a11.36,11.36,0,0,1,1.86.12q11.07,10.13,21.65,10.13a27.73,27.73,0,0,0,5.59-.7Zm-29.1,11.11a10.1,10.1,0,0,0,.35-2.66,14.25,14.25,0,0,0-1.87-5.78h-2.11a11.16,11.16,0,0,1-3.63-.46,8.27,8.27,0,0,1-2-1.8c-1-1.05-1.78-1.58-2.4-1.58a4.07,4.07,0,0,0-3.4,2.09c-2.57,3.85-3.86,7-3.86,9.48a8,8,0,0,0,2.28,5.5,7,7,0,0,0,5.33,2.49,12.71,12.71,0,0,0,3.39-.58Q342.27,70.08,345.78,64.65Z"/><path class="cls-1" d="M433.42,70.3c-.86.23-2.18.66-4,1.28a11.52,11.52,0,0,1-2.33.75,13.37,13.37,0,0,1-2.44.18,32.94,32.94,0,0,1-5.24-.35,15.1,15.1,0,0,0-4.54.93c-2.33.7-3.84,1.12-4.54,1.28l-5,.93a46.7,46.7,0,0,1-7.8,1.28l-11.06.93a50.2,50.2,0,0,1-1.86,6.87l-2.15,7q-1.17,4.43-3.27,11.63l-3,8.49a1.15,1.15,0,0,1-.47.11q-1.41,0-3.28-3.83a6.62,6.62,0,0,1-.7-3,13.21,13.21,0,0,1,.58-3.37c.47-1.94.74-3,.82-3.25q.36-2.1,3.91-12.8c.3-1.09.9-3,1.79-5.84L382.21,70l4.42-10.48.35-5.93a27.21,27.21,0,0,1-4,3.84q-2.1,1.27-6.75,6.4a26.42,26.42,0,0,1-4.31,4q-3.37,2.33-4.53,3a30.41,30.41,0,0,1-7.57,2.56l-.58-5.93a61.3,61.3,0,0,0,6.28-2.45q2.1-1.15,11.41-8.73,2.1-1.74,8.26-6.75c2.8-2.32,5.74-4.57,8.85-6.75l2.33.7-.82,8.27,6.05-1.87q6.64-9,15-9,5.7,0,8.84,5.94A11.91,11.91,0,0,1,427,52.26a15,15,0,0,1-.7,4.19,14,14,0,0,1-1.23,2,4.78,4.78,0,0,0-1,2.51,14.7,14.7,0,0,1-.7,2.85,5.94,5.94,0,0,0-.47,2.85l7.34-.47Zm-15-11.23a7.74,7.74,0,0,0,.82-3.86,14.81,14.81,0,0,0-1.52-5.85,2.84,2.84,0,0,0-2.79-1.76,9.82,9.82,0,0,0-4.65,1.64,5.15,5.15,0,0,0-2.33,2.69,29,29,0,0,0-12.45,9.25,30.47,30.47,0,0,0-4,6.9l2.21,1.17A44.35,44.35,0,0,0,408,66.67c2.25-.77,3.81-1.36,4.66-1.75A12.5,12.5,0,0,0,418.4,59.07Z"/><path class="cls-1" d="M481.37,10.82l.35,2.33a26.27,26.27,0,0,1,.11,2.91,24,24,0,0,1-5.47,15.6,51.82,51.82,0,0,1-18.85,14.78l-9,6.75a9.16,9.16,0,0,0-1.75,5.24,9.38,9.38,0,0,0,4.66,8.26,22,22,0,0,0,4,.46,28.48,28.48,0,0,0,5.59-.4,21.76,21.76,0,0,0,5-2l3.73,3.38c-1.55.54-4,1.43-7.45,2.67-.47.16-1.86.66-4.19,1.52a11.89,11.89,0,0,1-4.07.81h-1.4a14.67,14.67,0,0,1-7.91-3.84,10,10,0,0,1-3.38-7.57l-6.28,5.82a39.7,39.7,0,0,0-4.43,3,14.58,14.58,0,0,1-4.77,2.09l-4.65-3a43.23,43.23,0,0,0,11.63-9.55c1.17-1.31,2.91-3.14,5.24-5.47A28.29,28.29,0,0,0,441,51.21V46.9a64.37,64.37,0,0,1,1.63-13.73,60.81,60.81,0,0,1,2.44-8.38,51.56,51.56,0,0,1,8.27-13.15q1.15-1.39,4.31-4.66A10.9,10.9,0,0,1,459,5.59q1.28-2.1,6.05-4A21.35,21.35,0,0,1,472.41,0q4.88,0,6.75,6.05Zm-4.54,3a8.87,8.87,0,0,0-2.26-6A7.19,7.19,0,0,0,469,5.24H467.9a34.94,34.94,0,0,0-9.56,7.21,33.19,33.19,0,0,0-6.67,9.78,41.94,41.94,0,0,0-2.43,10.36l-1.86,13.62,11.18-5.48,9-7q1.62-1.28,5.58-5.24A20.22,20.22,0,0,0,476.83,17Z"/><path class="cls-1" d="M516.86,65.76,509,72a16,16,0,0,1-9.89,3.84,17.7,17.7,0,0,1-6.87-1.51,40.56,40.56,0,0,1-6.05-2.79q-5.36-3.49-5.36-9.08A25.13,25.13,0,0,1,482,55.17c-.78,1.47-1.55,2.83-2.33,4.07a26.61,26.61,0,0,1-10.24,9.89c-3.8,2-5.94,3.19-6.4,3.49l-5.71-3.49a16.75,16.75,0,0,0,5.24-3.26c1.55-1.47,3.1-2.91,4.66-4.3q2-1.76,6.86-6.17A59,59,0,0,0,479.39,48l5-8,5.82-.81a1,1,0,0,1,.12.46V40a7.72,7.72,0,0,1-.58,2.67,15.8,15.8,0,0,0-1.17,4.19,10.26,10.26,0,0,0,.18,1.52,11.28,11.28,0,0,1,.17,1.51,15.06,15.06,0,0,1-.87,4.13,15,15,0,0,0-.87,4q0,3.38,4.88,7.79a12.4,12.4,0,0,0,8.62,3.26,16.26,16.26,0,0,0,3.95-.46,39.72,39.72,0,0,1,5.59-1.17,12.52,12.52,0,0,0,5-1.51ZM493.7,20.83a4.19,4.19,0,0,1-2,2.74,6.24,6.24,0,0,1-3.44,1.22,1.63,1.63,0,0,1-1.86-1.4,4.52,4.52,0,0,1,1.57-4,5.68,5.68,0,0,1,4-1.92c1.24,0,1.86.77,1.86,2.33A4.18,4.18,0,0,1,493.7,20.83Z"/><path class="cls-1" d="M557.83,70.3a8.47,8.47,0,0,1-1.39,1.63,10.08,10.08,0,0,1-6.17,1.74q-12.1,0-17.23-8.14a15.6,15.6,0,0,0-3.14-.35,9.32,9.32,0,0,0-5.82,2.32c-.39.31-1.94,1.87-4.66,4.66a3.94,3.94,0,0,1-3.14.93q-5-.7-5-6.4l-7.22,5.47-5.47-1.75A14.15,14.15,0,0,1,501.38,67c.94-.62,2.41-1.71,4.43-3.26q.93-.81,3.31-3a15.43,15.43,0,0,1,5.65-3.2l6.28,4.07L527,58h2.79q5.36,0,12.92,4.07a78.57,78.57,0,0,0,8.61,5,9.86,9.86,0,0,0,3.38.7,5.7,5.7,0,0,0,2.33-.47.48.48,0,0,0,.35-.12c-.24-.23-.39-.3-.47-.23a1.13,1.13,0,0,0-.23.82A2.75,2.75,0,0,0,557.83,70.3Z"/></svg>